<?xml version="1.0" encoding="UTF-8" standalone="no"?>
<!-- Created with Inkscape (http://www.inkscape.org/) -->

<svg
   width="162mm"
   height="162mm"
   viewBox="0 0 162 162"
   version="1.1"
   id="svg1"
   xml:space="preserve"
   inkscape:version="1.4.2 (f4327f4, 2025-05-13)"
   sodipodi:docname="logo.svg"
   inkscape:export-filename="browser-extension\icons\icon16.png"
   inkscape:export-xdpi="2.508642"
   inkscape:export-ydpi="2.508642"
   xmlns:inkscape="http://www.inkscape.org/namespaces/inkscape"
   xmlns:sodipodi="http://sodipodi.sourceforge.net/DTD/sodipodi-0.dtd"
   xmlns="http://www.w3.org/2000/svg"
   xmlns:svg="http://www.w3.org/2000/svg"><sodipodi:namedview
     id="namedview1"
     pagecolor="#171717"
     bordercolor="#000000"
     borderopacity="0.25"
     inkscape:showpageshadow="2"
     inkscape:pageopacity="0.0"
     inkscape:pagecheckerboard="0"
     inkscape:deskcolor="#d1d1d1"
     inkscape:document-units="mm"
     inkscape:zoom="1.0396254"
     inkscape:cx="411.2058"
     inkscape:cy="529.0367"
     inkscape:window-width="1278"
     inkscape:window-height="1360"
     inkscape:window-x="3193"
     inkscape:window-y="476"
     inkscape:window-maximized="0"
     inkscape:current-layer="layer1"
     inkscape:export-bgcolor="#09090900" /><defs
     id="defs1" /><g
     inkscape:label="Layer 1"
     inkscape:groupmode="layer"
     id="layer1"><path
       style="fill:#000000;stroke-width:0.812821"
       d="m 11.118278,128.81209 c -0.712044,-0.25909 -1.4814233,-1.2208 -1.6165573,-2.02064 -0.135099,-0.79965 0.262054,-1.9249 1.2449893,-3.52745 0.145221,-0.23676 0.965668,-1.55687 1.823215,-2.93358 0.857548,-1.37672 1.559177,-2.60241 1.559177,-2.72375 0,-0.12134 0.07258,-0.25288 0.161295,-0.2923 0.214413,-0.0953 1.383911,-1.8997 1.231262,-1.8997 -0.06542,0 0.05418,-0.18717 0.265772,-0.41592 0.211602,-0.22876 0.626672,-0.882 0.922378,-1.45166 0.295706,-0.56966 0.590357,-1.08413 0.65478,-1.14327 0.06442,-0.0592 0.314286,-0.44624 0.55525,-0.86024 1.024016,-1.75932 7.379259,-12.362339 10.47334,-17.473599 1.843747,-3.04577 3.283845,-5.53925 3.200217,-5.54106 -0.08363,-0.002 -0.05497,-0.0744 0.06368,-0.16129 0.118652,-0.0869 0.544261,-0.69028 0.945799,-1.34083 1.143277,-1.85229 4.537531,-7.56682 4.537531,-7.63934 0,-0.0359 0.338718,-0.57955 0.752706,-1.20816 0.413989,-0.62862 0.752706,-1.25804 0.752706,-1.39873 0,-0.1407 0.08647,-0.28807 0.192144,-0.3275 0.105679,-0.0394 0.530599,-0.64887 0.944268,-1.35433 l 0.752122,-1.28264 -2.826032,-0.817 c -1.554318,-0.44934 -3.019586,-0.8552 -3.25615,-0.90193 -0.236565,-0.0467 -0.672059,-0.17901 -0.967765,-0.294 -0.295706,-0.115 -0.609215,-0.22332 -0.696685,-0.24073 -0.08747,-0.0174 -0.281022,-0.0729 -0.430117,-0.12333 -0.413385,-0.1398 -2.631878,-0.75811 -3.090934,-0.86146 -0.404325,-0.091 -4.013289,-1.15424 -7.287916,-2.14704 -0.946259,-0.28688 -2.048324,-0.57878 -2.449033,-0.64865 -0.400708,-0.0699 -0.884591,-0.20818 -1.075294,-0.30737 -0.354187,-0.18422 -3.783949,-1.191289 -4.755441,-1.396323 -0.751226,-0.158549 -1.857266,-0.467308 -3.118354,-0.870516 -0.5914123,-0.189094 -1.1236833,-0.353471 -1.1828243,-0.36529 -0.05914,-0.01179 -0.204306,-0.05389 -0.322588,-0.09341 -0.499981,-0.167214 -5.781101,-1.645329 -6.101421,-1.707713 -0.19269,-0.03755 -0.37454,-0.08773 -0.404111,-0.111559 -0.07849,-0.06324 -0.293411,-0.125029 -1.075295,-0.309002 L 0.79545068,62.456319 v -3.871058 -3.87106 l 0.69894102,0.150657 c 0.946193,0.203951 1.047984,0.233776 1.666707,0.488352 0.513552,0.211303 5.680805,1.972964 6.129178,2.089609 0.118283,0.03077 0.360224,0.116756 0.537648,0.191079 0.4219163,0.176742 6.5269083,2.314828 6.6668263,2.334856 0.05914,0.0085 0.204306,0.04966 0.322589,0.0915 1.2167,0.430592 5.426013,1.863173 5.591531,1.903001 0.118283,0.02845 0.37686,0.122208 0.574617,0.208326 0.197758,0.08612 0.488088,0.176041 0.645177,0.199824 0.15709,0.02382 0.382395,0.100066 0.500677,0.169514 0.118282,0.06941 1.763483,0.630253 3.656002,1.246225 1.892518,0.615981 3.634495,1.209007 3.87106,1.317835 0.454464,0.209066 2.191107,0.82316 2.368641,0.837564 0.218387,0.01772 0.57333,0.124126 0.964772,0.28921 0.464497,0.195889 4.623766,1.680008 4.623766,1.649868 0,-0.0139 0.279328,0.0809 0.62073,0.2107 0.341401,0.1298 0.776895,0.26698 0.967765,0.30484 0.19087,0.0379 0.625953,0.18286 0.966853,0.32224 0.340899,0.13937 0.77996,0.20258 0.975691,0.14045 0.31233,-0.0991 1.340061,-1.681097 2.378717,-3.661527 0.186103,-0.354846 0.800985,-1.358322 1.366406,-2.229943 0.565419,-0.87162 1.715392,-2.758763 2.555495,-4.193648 0.840101,-1.434886 1.826565,-3.111315 2.192138,-3.725399 0.365575,-0.614084 1.13922,-1.920567 1.71921,-2.903296 0.57999,-0.982728 3.08747,-5.125568 5.57216,-9.206311 2.4847,-4.080743 4.7199,-7.802382 4.96712,-8.270311 0.24722,-0.467928 0.57046,-0.982918 0.71831,-1.144422 0.14785,-0.161502 0.26882,-0.431894 0.26882,-0.600869 0,-0.168974 0.0903,-0.307227 0.20057,-0.307227 0.11031,0 0.26852,-0.217746 0.35157,-0.483883 0.0831,-0.266135 0.22306,-0.532271 0.31113,-0.591412 0.25922,-0.17409 2.14756,-3.365464 2.14756,-3.629474 0,-0.132873 0.0726,-0.244192 0.16129,-0.247373 0.0887,-0.0032 0.39258,-0.380921 0.67526,-0.839422 0.81215,-1.317297 2.11016,-1.662145 3.59829,-0.955977 0.60806,0.288543 1.12598,1.009676 2.97324,4.139886 1.2303,2.084763 2.341038,3.907366 2.468298,4.050228 0.12726,0.14286 0.23139,0.313344 0.23139,0.378852 0,0.225395 4.15704,7.103594 4.33654,7.175207 0.0988,0.03943 0.17969,0.166663 0.17969,0.282746 0,0.189141 2.1012,3.790498 2.36546,4.054276 0.0592,0.05914 0.43929,0.736576 0.84454,1.505412 0.40524,0.768836 0.79235,1.446271 0.86023,1.505413 0.0679,0.05914 0.45763,0.736576 0.86609,1.505412 0.40847,0.768835 1.64555,2.897918 2.74908,4.731296 1.10352,1.833377 2.0758,3.458514 2.16062,3.611414 0.11699,0.210895 1.29632,0.294271 4.88552,0.345397 4.945534,0.07045 6.981704,0.341545 10.689324,1.423206 5.68545,1.658675 11.45277,4.652531 15.64445,8.121159 1.87586,1.55227 6.46271,6.13889 6.46271,6.46239 0,0.27605 -4.11767,4.35552 -4.56754,4.52518 -0.11603,0.0437 -1.04713,-0.74143 -2.06912,-1.74486 -5.37861,-5.2809 -10.67081,-8.44665 -17.34241,-10.37409 -2.28313,-0.659601 -6.631804,-1.401691 -8.214324,-1.401748 l -1.11739,-4e-5 0.70222,1.236588 c 1.17223,2.06431 1.28825,2.20435 1.82608,2.20435 1.011154,0 5.980584,1.1091 7.878714,1.75841 5.20259,1.77968 8.75999,4.03421 13.0476,8.26901 1.39929,1.38206 2.54417,2.58179 2.54417,2.66607 0,0.18367 -4.02265,4.15776 -4.31199,4.25993 -0.11105,0.0392 -1.1385,-0.76418 -2.28322,-1.78531 -3.3774,-3.01277 -6.89066,-5.15547 -10.75519,-6.55947 -1.49414,-0.54283 -2.05883,-0.52106 -1.4807,0.0571 0.20172,0.20171 0.30356,0.36675 0.22632,0.36675 -0.17705,0 0.76081,1.55788 1.06612,1.77094 0.12454,0.0869 0.14834,0.15949 0.0529,0.1613 -0.0954,0.002 -0.0228,0.21837 0.16129,0.48126 0.4708,0.67215 0.41847,1.16149 -0.2127,1.98899 -0.30112,0.39479 -0.76653,1.28329 -1.03425,1.97445 -0.26771,0.69116 -0.6262,1.28043 -0.79662,1.30949 -0.19503,0.0332 -0.81222,-0.84332 -1.66528,-2.36516 -1.69845,-3.02996 -1.829794,-3.24841 -2.050154,-3.40978 -0.0988,-0.0723 -0.16011,-0.20002 -0.13623,-0.28368 0.058,-0.20342 -3.89481,-6.87682 -4.12792,-6.96889 -0.10044,-0.0397 -0.12793,-0.16064 -0.061,-0.26882 0.0669,-0.10818 0.0338,-0.19669 -0.0736,-0.19669 -0.10729,0 -0.36965,-0.3871 -0.58299,-0.86024 -0.21336,-0.47313 -0.46999,-0.86023 -0.57031,-0.86023 -0.10032,0 -0.15821,-0.0823 -0.12864,-0.1829 0.0621,-0.21118 -11.0354,-19.028588 -11.2857,-19.13656 -0.0914,-0.03943 -0.16618,-0.167673 -0.16618,-0.28499 0,-0.201925 -1.68471,-3.178201 -1.92845,-3.406855 -0.0631,-0.05914 -0.36451,-0.591412 -0.66992,-1.182824 -0.30543,-0.591412 -2.2507,-3.881813 -4.322838,-7.312003 -2.07213,-3.430189 -3.93514,-6.561913 -4.14001,-6.959384 l -0.3725,-0.722676 -0.48933,0.722676 c -0.91599,1.352787 -12.56173,20.830684 -12.45456,20.830684 0.0587,0 -0.0454,0.152077 -0.23128,0.33795 -0.18587,0.185872 -0.33795,0.468137 -0.33795,0.627255 0,0.159118 -0.0803,0.321564 -0.17838,0.360991 -0.1454,0.05843 -6.502494,10.523151 -8.392109,13.814666 -0.278183,0.48457 -1.028201,1.76043 -1.666707,2.83525 -0.638506,1.07483 -1.16092,2.05873 -1.16092,2.18644 0,0.12771 -0.08713,0.26446 -0.193619,0.30389 -0.106491,0.0394 -0.918667,1.28139 -1.804836,2.75992 -0.886168,1.47853 -4.0545,6.75285 -7.040737,11.72071 -2.986236,4.96786 -6.397113,10.67767 -7.579726,12.688479 -1.182613,2.01082 -3.733744,6.28284 -5.669179,9.4934 -1.935434,3.21056 -3.518972,5.93645 -3.518972,6.05754 0,0.12107 -0.08486,0.2524 -0.188573,0.29183 -0.103715,0.0394 -1.173197,1.71689 -2.376626,3.72771 l -2.188052,3.65602 54.993956,0.0542 c 30.246672,0.0298 55.031132,0.017 55.076582,-0.0285 0.0454,-0.0454 -0.70977,-1.4247 -1.67825,-3.06502 -1.6418,-2.78073 -2.59727,-4.42191 -4.929,-8.46643 -0.51144,-0.88712 -1.03474,-1.68405 -1.16289,-1.77096 -0.12814,-0.0869 -0.15576,-0.15947 -0.0614,-0.16129 0.0944,-0.002 -0.10708,-0.41459 -0.44773,-0.9173 -1.47626,-2.17856 -5.00688,-8.35193 -4.88725,-8.54549 0.10419,-0.16858 1.07724,-0.16107 1.07724,0.008 0,0.0239 0.19355,0.0726 0.43012,0.10825 0.23656,0.0357 0.67205,0.12607 0.96776,0.20092 0.2957,0.0749 1.13536,0.24532 1.86591,0.37882 0.96899,0.17706 1.3903,0.36251 1.55762,0.68563 0.12614,0.24361 0.31939,0.58809 0.42944,0.76551 0.11004,0.17742 1.09776,1.82264 2.19491,3.65603 1.09716,1.83338 2.08063,3.39263 2.18549,3.465 0.10487,0.0723 0.18069,0.19435 0.1685,0.27108 -0.0122,0.0767 1.40699,2.51917 3.15375,5.42763 1.74675,2.90846 3.31183,5.54462 3.47794,5.85812 0.16611,0.31352 0.35966,0.61868 0.43012,0.67816 0.27357,0.23093 1.05773,1.86871 1.27934,2.67201 0.32451,1.17622 -0.2509,2.48274 -1.31602,2.98818 -0.70636,0.33519 -4.96586,0.35966 -59.869172,0.34389 -32.509776,-0.009 -59.253854,-0.0698 -59.431277,-0.13436 z m 118.812672,-0.58442 c 1.15506,-0.48262 1.71299,-1.9108 1.16734,-2.98814 -0.13085,-0.25837 -3.2035,-5.42957 -6.82812,-11.49156 -4.78373,-8.00058 -6.69585,-11.02181 -6.97562,-11.02182 -0.21198,-2e-5 -1.11729,-0.15121 -2.01179,-0.33598 -0.89451,-0.18476 -1.67241,-0.2899 -1.72867,-0.23363 -0.11104,0.11104 1.92984,3.72331 3.6632,6.48373 0.59419,0.94626 1.91507,3.17214 2.9353,4.94639 1.02022,1.77424 2.52644,4.36393 3.34717,5.75486 2.61446,4.4309 2.8901,4.93029 2.8901,5.23613 0,0.2554 -8.22692,0.29966 -55.700262,0.29966 -48.413304,0 -55.70026,-0.0406 -55.70026,-0.31061 0,-0.17083 1.399524,-2.61445 3.110053,-5.43027 1.710528,-2.81581 3.705943,-6.13582 4.434254,-7.37778 0.72831,-1.24198 1.487972,-2.50008 1.688136,-2.79579 0.200164,-0.29571 1.704572,-2.81191 3.343128,-5.59156 1.638556,-2.77966 4.203886,-7.086209 5.700734,-9.570139 4.427794,-7.34767 6.660972,-11.06952 7.806861,-13.01107 0.593382,-1.0054 2.159674,-3.61836 3.480649,-5.80659 1.320974,-2.18822 3.321416,-5.52701 4.445426,-7.41953 7.584539,-12.770244 17.929719,-30.036219 19.779369,-33.011541 0.3309,-0.532271 0.90349,-1.475843 1.27242,-2.096826 0.36894,-0.620984 0.79553,-1.12906 0.94799,-1.12906 0.26066,0 6.04496,9.489443 12.715658,20.860716 4.05706,6.915872 5.32895,9.076977 7.40439,12.580943 0.98084,1.655961 2.55586,4.317308 3.50003,5.914118 0.94418,1.59682 2.23218,3.77429 2.86221,4.83883 0.63004,1.06454 2.19061,3.74464 3.467954,5.95576 1.27733,2.21113 2.3772,3.9531 2.44415,3.87106 0.067,-0.0821 0.30225,-0.58466 0.52289,-1.11694 0.22064,-0.53226 0.61294,-1.25928 0.87177,-1.6156 l 0.4706,-0.64784 -1.10102,-1.98658 c -0.60557,-1.09263 -1.57808,-2.78502 -2.16115,-3.76087 -2.085654,-3.4907 -4.396864,-7.41283 -6.051304,-10.269112 -2.17133,-3.748658 -3.02513,-5.194261 -6.56979,-11.123611 -1.61055,-2.694052 -3.56556,-6.011206 -4.34448,-7.371454 -0.77892,-1.360247 -2.23551,-3.828049 -3.23688,-5.484002 -2.51008,-4.150928 -4.67589,-7.769633 -7.093528,-11.852076 -1.73333,-2.926915 -2.17395,-3.522712 -2.83833,-3.837982 -0.6964,-0.330466 -0.87612,-0.339085 -1.56929,-0.07526 -0.70666,0.268956 -1.09231,0.809762 -3.96374,5.558455 -1.7495,2.893281 -3.7389,6.179886 -4.42088,7.303569 -0.68199,1.123683 -3.79377,6.301226 -6.91507,11.505651 -3.121304,5.204426 -6.974824,11.621022 -8.563378,14.259106 l -2.88828,4.796526 -0.6733,-0.14757 c -0.370315,-0.0812 -3.044325,-0.96384 -5.942244,-1.96151 C 34.027428,66.523207 27.543402,64.30167 22.516399,62.584122 17.489397,60.866582 12.408631,59.121084 11.225807,58.70525 7.8465297,57.517227 1.5648927,55.416376 1.3868617,55.414681 c -0.08871,-8.13e-4 -0.161294,1.476816 -0.161294,3.283689 v 3.285223 l 2.419412,0.668773 c 4.672881,1.291679 29.5447823,8.449425 34.3291463,9.879395 1.345665,0.4022 2.579566,0.73127 2.742002,0.73127 0.657786,0 0.182189,1.09243 -2.140029,4.91555 -1.339452,2.20517 -6.773826,11.26764 -12.076387,20.13882 -5.302562,8.871209 -9.855637,16.468209 -10.117945,16.882209 -1.524653,2.4063 -5.21506,8.45097 -5.756416,9.42868 -0.6919903,1.24976 -0.7845843,1.94252 -0.364542,2.72737 0.670652,1.25313 -3.7345223,1.16741 60.274399,1.17275 50.222142,0.004 58.769502,-0.0391 59.395742,-0.30074 z m -9.71749,-44.124759 1.83373,-1.74108 -2.15764,-2.30214 c -1.93512,-2.06473 -2.89257,-2.86864 -5.51659,-4.63199 -2.56114,-1.7211 -6.19151,-3.34982 -9.35324,-4.19623 -2.11133,-0.56521 -5.912944,-1.29541 -6.046904,-1.16146 -0.045,0.045 0.79712,1.58909 1.871264,3.43143 l 1.953,3.34969 1.84992,0.59894 c 4.30999,1.39545 8.6272,3.91617 11.74261,6.85625 0.94626,0.893 1.78115,1.60429 1.85531,1.58065 0.0741,-0.0237 0.96,-0.82648 1.96854,-1.78406 z m 9.35118,-8.90998 c 0.0601,-0.12543 -4.92631,-5.04749 -6.18855,-6.10875 -0.41237,-0.34671 -1.79159,-1.33861 -3.06492,-2.204204 -7.05454,-4.795587 -15.30591,-7.372409 -23.626884,-7.37844 -2.35271,-0.0016 -3.20545,0.06966 -3.38245,0.282902 -0.18012,0.217015 0.0402,0.768962 0.92218,2.309542 0.63737,1.113402 1.3753,2.267365 1.63984,2.564361 0.26454,0.296989 0.46675,0.564179 0.44936,0.59375 -0.20312,0.345416 0.19137,0.48388 1.3786,0.48388 2.553434,0 6.351064,0.688289 9.772854,1.771239 5.81179,1.83936 10.96924,4.98936 15.79284,9.6457 l 2.16458,2.08954 2.04306,-1.96582 c 1.12368,-1.0812 2.06845,-2.01886 2.09949,-2.0837 z m 26.82593,50.640489 c -1.53767,-1.5764 -8.79157,-8.87365 -16.11978,-16.21611 l -13.32401,-13.349879 1.38824,-1.418 c 1.87908,-1.91935 3.37414,-3.09228 3.9345,-3.08675 0.32372,0.003 4.5886,4.09881 14.06705,13.508819 l 13.60247,13.5043 v 4.98628 c 0,4.61476 -0.028,4.98448 -0.37635,4.9619 -0.207,-0.0134 -1.63445,-1.31416 -3.17212,-2.89056 z m 3.22378,-2.10433 0.14285,-4.48165 -13.58813,-13.54723 C 133.6828,93.251581 132.53535,92.164481 132.01875,92.294141 c -0.3092,0.0776 -1.43445,0.99938 -2.50057,2.0484 l -1.93838,1.9073 13.33009,13.363109 c 7.33155,7.34973 14.48211,14.56636 15.89014,16.03696 1.40803,1.4706 2.58512,2.64839 2.61576,2.61732 0.0306,-0.0311 0.11999,-2.07324 0.19856,-4.53814 z m -8.90675,-18.34425 c -4.74014,-4.68843 -8.6084,-8.632079 -8.59611,-8.763679 0.0262,-0.28023 4.68627,-4.6884 5.09154,-4.81627 0.15128,-0.0477 2.68418,2.33631 5.62868,5.29787 6.92907,6.969259 7.10733,7.310149 7.10733,13.591169 0,2.63966 -0.0549,3.21531 -0.30649,3.21531 -0.16858,0 -4.1848,-3.83598 -8.92495,-8.5244 z m 8.80133,5.11279 c 0,-5.88731 -0.25586,-6.36994 -6.93835,-13.088429 -2.85883,-2.87422 -5.26883,-5.20056 -5.35555,-5.16965 -0.0867,0.0309 -1.16357,1.04702 -2.39298,2.25802 l -2.23529,2.20183 8.29978,8.281309 c 4.56489,4.55473 8.37238,8.2818 8.46109,8.28235 0.0887,5.5e-4 0.1613,-1.24389 0.1613,-2.76543 z M 115.31432,98.555611 c -0.47313,-0.14886 -1.10217,-0.39594 -1.39789,-0.54906 -0.72474,-0.3753 -1.93553,-1.53948 -1.93553,-1.86103 0,-0.47406 4.96151,-5.0326 5.47748,-5.0326 0.32841,0 1.23379,0.77665 2.87733,2.4682 1.31898,1.35751 2.39814,2.56223 2.39814,2.67715 0,0.27724 -0.83082,1.14846 -1.5184,1.59223 -1.44184,0.9306 -4.15434,1.2547 -5.90113,0.70511 z m 4.4482,-0.55543 c 0.86179,-0.26618 1.60391,-0.66351 1.98794,-1.06436 l 0.61279,-0.63962 -0.94375,-1.04406 c -0.51907,-0.57423 -1.63957,-1.69832 -2.49,-2.49795 l -1.54624,-1.45389 -2.4731,2.3958 c -1.51455,1.4672 -2.42907,2.51058 -2.35949,2.69192 0.17411,0.45372 2.03499,1.57109 2.98855,1.79448 1.39571,0.32697 2.76593,0.26782 4.2233,-0.18232 z m -11.8393,-5.04654 c -1.45086,-1.51092 -1.96396,-2.47541 -1.96396,-3.69173 0,-0.70036 0.20292,-0.99614 1.79666,-2.6188 2.24286,-2.28355 2.258,-2.28209 5.06829,0.48744 1.76748,1.74185 2.00934,2.06583 1.833,2.45542 -0.24027,0.53087 -4.8282,4.74727 -5.16916,4.75057 -0.1291,0.002 -0.83328,-0.62106 -1.56483,-1.3829 z m 5.77334,-3.06556 0.53283,-0.49577 -1.82319,-1.84679 c -1.00274,-1.01573 -2.01673,-1.92432 -2.25329,-2.01908 -0.35467,-0.14207 -0.70405,0.1159 -1.99157,1.4705 -0.85879,0.90354 -1.62186,1.87077 -1.69571,2.14938 -0.19161,0.72289 0.39288,1.80939 1.81655,3.37678 l 1.22555,1.34927 1.828,-1.74426 c 1.0054,-0.95934 2.06777,-1.96735 2.36083,-2.24003 z m 23.5,1.86043 c -1.33067,-1.29869 -2.41941,-2.48286 -2.41941,-2.63151 0,-0.14865 0.95988,-1.22655 2.13307,-2.39534 l 2.13307,-2.12506 2.26778,2.1291 c 1.24728,1.17101 2.38161,2.34155 2.52073,2.6012 0.23066,0.4305 0.0771,0.66264 -1.74238,2.63447 -1.09742,1.18931 -2.1029,2.15923 -2.23439,2.15538 -0.13148,-0.004 -1.32779,-1.06955 -2.65847,-2.36824 z m 6.398,-2.00219 c 0,-0.10601 -1.00316,-1.18744 -2.22924,-2.40317 l -2.22925,-2.21041 -1.98884,1.99715 -1.98886,1.99715 2.32445,2.29089 2.32444,2.29089 1.89365,-1.88488 c 1.04151,-1.03668 1.89365,-1.97161 1.89365,-2.07762 z m -21.29083,1.75612 c -1.12368,-1.30527 -2.04306,-2.48335 -2.04306,-2.61796 0,-0.32355 4.53711,-4.72337 4.76767,-4.6234 0.0983,0.0426 1.24323,1.17559 2.54434,2.5177 l 2.36564,2.44022 -2.44438,2.34484 c -1.34442,1.28966 -2.60251,2.33741 -2.79577,2.32834 -0.19325,-0.009 -1.27075,-1.08447 -2.39444,-2.38974 z m 4.6582,0.0306 c 1.16388,-1.06999 2.11616,-2.0688 2.11616,-2.21956 0,-0.15075 -0.92149,-1.2572 -2.04774,-2.45875 l -2.04774,-2.18465 -2.19762,2.10294 -2.19763,2.10293 1.77219,2.00489 c 0.9747,1.10269 1.86847,2.13826 1.98614,2.30127 0.11768,0.16302 0.27834,0.2964 0.35702,0.2964 0.0787,0 1.09533,-0.87546 2.25922,-1.94547 z m 18.39173,-5.66596 c -0.73764,-0.76396 -1.89385,-1.89415 -2.56935,-2.51153 l -1.2282,-1.12249 8.77934,-8.67869 c 5.71865,-5.6531 8.93043,-8.678696 9.21274,-8.678696 0.4208,0 0.43123,0.109048 0.35837,3.747856 l -0.075,3.74785 -1.18283,2.32085 -1.18282,2.32085 -5.12084,5.0606 c -2.81646,2.78332 -5.23994,5.088 -5.38551,5.12151 -0.14558,0.0335 -0.86821,-0.56414 -1.60585,-1.32811 z m 6.7743,-4.21682 c 5.02444,-4.94684 5.15553,-5.09815 6.18931,-7.14422 l 1.05617,-2.09034 0.13758,-3.39366 c 0.0757,-1.866517 0.0589,-3.484478 -0.0373,-3.595468 -0.10029,-0.115738 -3.82187,3.415538 -8.72596,8.279768 l -8.5511,8.48157 2.25812,2.28473 c 1.24196,1.2566 2.32154,2.27276 2.39905,2.25812 0.0775,-0.0146 2.45086,-2.30086 5.2741,-5.0805 z m -21.75952,3.41794 c -0.94626,-1.06911 -1.93822,-2.16563 -2.20435,-2.43673 -0.26613,-0.27108 -0.48318,-0.62695 -0.48232,-0.79081 0.002,-0.30323 2.34364,-2.66142 9.46103,-9.52627 2.18822,-2.11058 8.15875,-7.995564 13.26785,-13.077736 5.10909,-5.082175 9.39018,-9.17794 9.51354,-9.1017 0.15179,0.09382 0.17909,1.742798 0.0844,5.10211 l -0.13986,4.963491 -4.40537,4.326858 c -2.42296,2.379761 -6.31274,6.213997 -8.64395,8.520497 -7.02064,6.94624 -14.34069,13.97929 -14.54161,13.97147 -0.1039,-0.004 -0.96313,-0.88207 -1.90939,-1.95118 z m 13.22612,-9.63174 c 4.90873,-4.8004 10.49361,-10.27751 12.41087,-12.171342 l 3.48592,-3.44333 0.0428,-4.30118 c 0.0235,-2.365649 -0.014,-4.301179 -0.0833,-4.301179 -0.0693,0 -1.89915,1.742282 -4.06632,3.871738 -21.12532,20.757703 -27.0634,26.653833 -27.00871,26.817903 0.0351,0.10538 0.93304,1.14624 1.99536,2.31302 l 1.93149,2.12141 1.18348,-1.08951 c 0.65092,-0.59924 5.19971,-5.01713 10.10842,-9.81753 z m -13.80281,-5.34195 -2.62196,-2.59742 0.72402,-0.826829 c 0.39821,-0.454757 5.95673,-6.006049 12.35227,-12.336215 6.39554,-6.330164 13.3138,-13.22549 15.37391,-15.322947 2.06012,-2.097457 3.87468,-3.813558 4.03236,-3.813558 0.23133,0 0.28669,1.050533 0.28669,5.440002 v 5.440001 l -2.20203,2.033296 c -2.69554,2.488983 -7.35879,7.008306 -15.42891,14.95269 -3.37319,3.320634 -6.97937,6.84547 -8.01373,7.83296 l -1.88066,1.79544 z m 4.43231,0.22811 c 0.95476,-0.9075 4.44715,-4.31888 7.76088,-7.580829 5.87663,-5.784797 13.80451,-13.439445 16.28739,-15.726043 l 1.2366,-1.138828 -0.009,-5.070866 -0.009,-5.070866 -4.56481,4.623767 c -2.51065,2.543071 -9.40065,9.409575 -15.31112,15.258899 -5.91048,5.84932 -10.9805,10.913439 -11.26672,11.253588 l -0.52039,0.618448 2.23373,2.24137 c 1.22855,1.23274 2.2769,2.24135 2.32966,2.24135 0.0528,0 0.8771,-0.7425 1.83184,-1.64999 z"
       id="path1"
       sodipodi:nodetypes="csssscssscsscssssscscccssccscssscccsscccssssccssccsssssscscsssssssssscsscssssssscssssssssscssscsssssssssssccsscscccssssssscssscsssssssscssssscscssssscsssccsssscssssssccccsssssssssssssssssssssssssssssscscsssssssssssccssscscssssssssccscssssscsscscsscscssssscscsscscscsssscssscsscsssssssssssscsssscsssssssscsscssssssssscsscssssscssssscssscssscccccsssssscscsssscccsssssscssccccssssssccsscscsscscsssccsscccssccsssscsssccssssscssscccsscccssscsscc" /><path
       style="fill:#eb5733;fill-opacity:1;stroke-width:0.254499"
       d="m 122.54113,76.329662 c -7.0159,-6.377545 -14.97297,-9.976035 -23.470684,-10.614345 -2.643393,-0.198559 -2.421038,-0.04188 -4.240416,-2.987847 -1.484003,-2.402922 -1.598123,-2.798804 -0.863518,-2.995612 0.859012,-0.23014 3.825134,-0.186915 6.498198,0.0947 9.75993,1.028218 18.45687,5.139603 25.79598,12.194767 l 3.15191,3.029961 -1.90237,1.930101 c -1.04631,1.061556 -1.96251,1.921764 -2.03599,1.911575 -0.0735,-0.01019 -1.39339,-1.163675 -2.93311,-2.563297 z"
       id="path2" /><path
       style="fill:#eb5733;fill-opacity:1;stroke-width:0.254499"
       d="m 130.34399,69.663149 c -1.14215,-1.148119 -2.07858,-2.199621 -2.08096,-2.33667 -0.002,-0.137052 6.98742,-7.17791 15.53289,-15.646355 l 15.53721,-15.397172 -0.008,4.743409 -0.008,4.743411 -2.09042,2.000805 c -1.14973,1.100445 -5.73906,5.551064 -10.19851,9.890265 -4.45944,4.339204 -9.57025,9.284536 -11.35735,10.989628 l -3.24928,3.100168 z"
       id="path3" /><path
       style="fill:#fecb35;fill-opacity:1;stroke-width:0.254499"
       d="m 116.20028,83.956854 c -3.45981,-2.99937 -6.42439,-4.751615 -10.71057,-6.33058 -1.25976,-0.464082 -2.42685,-0.966012 -2.59353,-1.115404 -0.58635,-0.525536 -3.632974,-6.126141 -3.379053,-6.211702 0.141369,-0.04764 1.414823,0.161277 2.829903,0.464254 7.07068,1.513866 12.57981,4.499525 17.44851,9.456163 l 2.08989,2.127634 -1.83554,1.677839 -1.83553,1.677837 z"
       id="path4" /><path
       style="fill:#fecb35;fill-opacity:1;stroke-width:0.254499"
       d="m 108.35188,92.346053 c -1.29861,-1.535015 -1.71692,-2.251324 -1.71692,-2.940018 0,-0.623692 2.70923,-3.623083 3.27258,-3.623083 0.23672,0 1.23976,0.830302 2.229,1.845114 l 1.79861,1.845117 -2.22234,2.109372 -2.22233,2.109375 z"
       id="path5" /><path
       style="fill:#fecb35;fill-opacity:1;stroke-width:0.254499"
       d="m 130.33699,83.937835 -1.86504,-2.099614 12.94076,-12.788672 c 7.11742,-7.033771 14.05737,-13.831938 15.42212,-15.107042 l 2.48136,-2.318369 v 4.073591 4.073594 l -10.87982,10.650924 c -13.87168,13.579842 -15.97239,15.615203 -16.11658,15.615203 -0.0648,0 -0.95702,-0.944827 -1.9828,-2.099615 z"
       id="path6" /><path
       style="fill:#2aa661;fill-opacity:1;stroke-width:0.254499"
       d="m 115.25867,97.902276 c -0.506,-0.180824 -1.27894,-0.584356 -1.71764,-0.896739 -0.99656,-0.709618 -0.94729,-0.808707 1.70684,-3.43214 l 2.03124,-2.007757 1.19349,0.977969 c 0.65641,0.537882 1.76036,1.613157 2.45322,2.389503 l 1.25975,1.411536 -0.65351,0.564001 c -1.35647,1.170681 -4.4201,1.655922 -6.27339,0.993627 z"
       id="path7" /><path
       style="fill:#2aa661;fill-opacity:1;stroke-width:0.254499"
       d="m 122.68033,91.014249 -1.82461,-2.149163 1.95151,-1.85919 c 1.07333,-1.022556 2.03786,-1.892051 2.14339,-1.932212 0.23634,-0.08994 3.82573,3.859963 3.82573,4.209986 0,0.306004 -3.72616,3.879744 -4.04522,3.879744 -0.1244,0 -1.04727,-0.967123 -2.0508,-2.149165 z"
       id="path8" /><path
       style="fill:#2aa661;fill-opacity:1;stroke-width:0.254499"
       d="m 137.59771,91.314837 -2.24354,-2.096154 1.92851,-1.902568 1.92852,-1.902571 2.03578,2.023848 c 1.11969,1.113118 2.03579,2.144133 2.03579,2.291143 0,0.147013 -0.77434,1.035706 -1.72076,1.974877 l -1.72077,1.707578 z"
       id="path9" /><path
       style="fill:#2aa661;fill-opacity:1;stroke-width:0.254499"
       d="m 144.53569,84.34668 -2.14366,-2.1717 8.25115,-8.121465 c 4.53813,-4.466804 8.34607,-8.121464 8.46208,-8.121464 0.11601,0 0.21093,1.446088 0.21093,3.213528 v 3.213529 l -1.05613,1.94007 c -0.86009,1.579949 -1.9112,2.805907 -5.66259,6.604551 -2.53356,2.565463 -4.90159,4.878268 -5.2623,5.139565 l -0.65582,0.475086 z"
       id="path10" /><path
       style="fill:#277bb8;fill-opacity:1;stroke-width:0.254499"
       d="m 146.46239,114.9903 c -6.9996,-7.03569 -14.04285,-14.14569 -15.65167,-15.799979 l -2.92512,-3.007799 1.99163,-1.891303 c 1.0954,-1.040214 2.10711,-1.891302 2.24825,-1.891302 0.34655,0 4.47516,3.996195 16.94714,16.403643 l 10.49807,10.44378 -0.0297,2.6734 c -0.0164,1.47037 -0.10226,3.39077 -0.19088,4.26756 l -0.16113,1.59415 z"
       id="path11" /><path
       style="fill:#277bb8;fill-opacity:1;stroke-width:0.254499"
       d="m 151.04855,104.87475 -8.1404,-8.144215 2.15557,-2.166832 2.15557,-2.166829 4.53736,4.518874 c 7.18423,7.154982 7.63075,7.936882 7.50428,13.140832 l -0.072,2.96239 z"
       id="path12" /><path
       style="fill:#ffffff;fill-opacity:1;stroke-width:0.254499"
       d="m 11.748932,128.04247 c -2.4282846,-0.39578 -2.2307544,-1.37135 1.525392,-7.53369 7.974628,-13.08321 27.478803,-45.840722 27.613452,-46.377199 0.08308,-0.33101 0.05064,-0.689504 -0.07209,-0.796655 -0.122727,-0.107154 -1.941005,-0.685774 -4.040619,-1.28582 C 34.67545,71.44906 25.857069,68.918332 17.178663,66.425269 L 1.3997429,61.89243 1.3277122,59.069188 c -0.039617,-1.552784 0.017645,-2.981433 0.1272494,-3.174783 0.1581923,-0.279059 4.1609765,1.008742 19.4139324,6.245971 18.763202,6.442501 22.637509,7.73009 22.758455,7.563567 0.03262,-0.04491 4.911225,-8.155633 10.841342,-18.023819 12.502089,-20.804473 14.520693,-24.096428 15.254581,-24.877253 0.758158,-0.806649 1.902079,-0.753122 2.719482,0.127249 0.753306,0.811332 7.590055,12.22941 23.810166,39.765428 3.009496,5.109062 6.24181,10.633496 7.18293,12.276516 l 1.71112,2.987315 -0.53782,0.755288 c -0.29579,0.415404 -0.65934,1.103923 -0.80789,1.530035 -0.14854,0.426114 -0.34951,0.774753 -0.44659,0.774753 -0.0971,0 -0.96599,-1.345663 -1.93089,-2.990361 C 85.708375,55.241837 72.670389,33.356771 71.524775,31.841768 c -0.81161,-1.073299 3.179463,-7.485821 -33.721728,54.181222 -12.43357,20.77827 -22.657687,37.9745 -22.720259,38.21378 -0.09822,0.37559 0.176399,0.45789 2.009048,0.60207 2.740739,0.21561 109.043534,0.0634 109.263354,-0.15642 0.23325,-0.2333 -0.27791,-1.17344 -5.09865,-9.37754 -6.60217,-11.23578 -7.49863,-12.80682 -7.37712,-12.92833 0.0622,-0.0622 0.86789,0.0293 1.79037,0.20335 1.65937,0.3131 1.68862,0.33311 2.74343,1.87611 0.5864,0.85779 3.67333,5.91157 6.85986,11.23063 6.11264,10.20341 6.30611,10.6361 5.30725,11.86966 l -0.4865,0.60082 -58.620821,0.0326 c -32.241455,0.0179 -59.117288,-0.0483 -59.724077,-0.14723 z"
       id="path13" /></g></svg>
